# xmcd
#
# Track frame offsets: 
#        150
#        7776
#        14245
#        22303
#        35395
#        46317
#        54398
#        61538
#        70614
#        79321
#        84450
#        95879
#        103095
#        111481
#        126015
#        133247
#        143051
#        157231
#        162971
#        172935
#        181531
#        189298
#        203100
#        209882
#        219006
#
# Disc length: 3101 seconds
#
# Revision: 0
# Processed by: cddbd v1.5.1PL0 Copyright (c) Steve Scherf et al.
# Submitted via: ExactAudioCopy v0.90b4
#
DISCID=5e0c1b19
DTITLE=Various Artist - Outlaws, Renegades and Rogues, Songs Of The Bad
DTITLE=man
DYEAR=2004
DGENRE=Bluegrass
TTITLE0=Hylo Brown and The Timberliners - Wild Bill Jones
TTITLE1=Jim Greer and The Mac-O-Chee Valley Singers - Jesse James
TTITLE2=Earl Taylor and Jim McCall and The Stoney Mountain Boys - Darling 
TTITLE2=Corey
TTITLE3=J.E. Mainer and The Mountaineers - Legend Of Billy The Kid
TTITLE4=Hylo Brown - Chain Gang Blues
TTITLE5=Mac Wiseman - Rovin' Gambler
TTITLE6=Nevada Slim - Sam Hall
TTITLE7=Don Reno and Bill Harrell and The Tennessee Cut-Ups - Poor Ellen S
TTITLE7=mith
TTITLE8=Hylo Brown and The Timberliners - Frankie And Johnnie
TTITLE9=Jim Greer and The Mac-O-Chee Valley Singers - Black Jack Davey
TTITLE10=Red Smiley and The Bluegrass Cut-Ups - Philadelphia Lawyer
TTITLE11=Bobby Smith and The Boys From Shilo - Pistol Packin' Mama
TTITLE12=Hylo Brown - Rising Sun
TTITLE13=Nevada Slim - The Legend Of Judge Roy Bean
TTITLE14=Jim Greer and The Mac-O-Chee Valley Singers - John Hardy
TTITLE15=Red Smiley and The Bluegrass Cut-Ups - Prisoner's Dream
TTITLE16=Hylo Brown - Escape Of Jennie Wiley
TTITLE17=The Wear Family - Columbus Stockade Blues
TTITLE18=Red White and The Dixie Blue Grass Band - On The Banks Of The O
TTITLE18=hio
TTITLE19=Nevada Slim - Jack Of Diamonds
TTITLE20=Hylo Brown and The Bluegrass Cut-Ups - Sam Wilson
TTITLE21=Log Cabin Boys - KnoXVIlle Girl
TTITLE22=Edith Roberts - Worried Woman Blues
TTITLE23=Red Smiley and The Bluegrass Cut-Ups - Tupelo County Jail
TTITLE24=Hylo Brown - Girl In The Blue Velvet Band
EXTD=
EXTT0=
EXTT1=
EXTT2=
EXTT3=
EXTT4=
EXTT5=
EXTT6=
EXTT7=
EXTT8=
EXTT9=
EXTT10=
EXTT11=
EXTT12=
EXTT13=
EXTT14=
EXTT15=
EXTT16=
EXTT17=
EXTT18=
EXTT19=
EXTT20=
EXTT21=
EXTT22=
EXTT23=
EXTT24=
PLAYORDER=
